{
	"asset":{
		"generator":"Khronos glTF Blender I/O v4.2.83",
		"version":"2.0"
	},
	"extensionsUsed":[
		"KHR_materials_specular"
	],
	"scene":0,
	"scenes":[
		{
			"name":"Scene",
			"nodes":[
				0,
				1,
				2,
				3,
				4,
				5,
				6,
				7
			]
		}
	],
	"nodes":[
		{
			"mesh":0,
			"name":"group_0_11862271",
			"rotation":[
				0.7071068286895752,
				0,
				0,
				0.7071068286895752
			],
			"scale":[
				0.20000000298023224,
				0.20000000298023224,
				0.20000000298023224
			]
		},
		{
			"mesh":1,
			"name":"group_0_15277357",
			"rotation":[
				0.7071068286895752,
				0,
				0,
				0.7071068286895752
			],
			"scale":[
				0.20000000298023224,
				0.20000000298023224,
				0.20000000298023224
			]
		},
		{
			"mesh":2,
			"name":"group_0_16089887",
			"rotation":[
				0.7071068286895752,
				0,
				0,
				0.7071068286895752
			],
			"scale":[
				0.20000000298023224,
				0.20000000298023224,
				0.20000000298023224
			]
		},
		{
			"mesh":3,
			"name":"group_0_16639",
			"rotation":[
				0.7071068286895752,
				0,
				0,
				0.7071068286895752
			],
			"scale":[
				0.20000000298023224,
				0.20000000298023224,
				0.20000000298023224
			]
		},
		{
			"mesh":4,
			"name":"group_0_16768282",
			"rotation":[
				0.7071068286895752,
				0,
				0,
				0.7071068286895752
			],
			"scale":[
				0.20000000298023224,
				0.20000000298023224,
				0.20000000298023224
			]
		},
		{
			"mesh":5,
			"name":"group_0_4634441",
			"rotation":[
				0.7071068286895752,
				0,
				0,
				0.7071068286895752
			],
			"scale":[
				0.20000000298023224,
				0.20000000298023224,
				0.20000000298023224
			]
		},
		{
			"mesh":6,
			"name":"group_0_4738883",
			"rotation":[
				0.7071068286895752,
				0,
				0,
				0.7071068286895752
			],
			"scale":[
				0.20000000298023224,
				0.20000000298023224,
				0.20000000298023224
			]
		},
		{
			"mesh":7,
			"name":"group_0_60911",
			"rotation":[
				0.7071068286895752,
				0,
				0,
				0.7071068286895752
			],
			"scale":[
				0.20000000298023224,
				0.20000000298023224,
				0.20000000298023224
			]
		}
	],
	"materials":[
		{
			"doubleSided":true,
			"extensions":{
				"KHR_materials_specular":{
					"specularFactor":0
				}
			},
			"name":"color_11862271",
			"pbrMetallicRoughness":{
				"baseColorFactor":[
					0.7098039388656616,
					0,
					1,
					1
				],
				"metallicFactor":0
			}
		},
		{
			"doubleSided":true,
			"extensions":{
				"KHR_materials_specular":{
					"specularFactor":0
				}
			},
			"name":"color_15277357",
			"pbrMetallicRoughness":{
				"baseColorFactor":[
					0.9137254953384399,
					0.11372549086809158,
					0.1764705926179886,
					1
				],
				"metallicFactor":0
			}
		},
		{
			"doubleSided":true,
			"extensions":{
				"KHR_materials_specular":{
					"specularFactor":0
				}
			},
			"name":"color_16089887",
			"pbrMetallicRoughness":{
				"baseColorFactor":[
					0.9607843160629272,
					0.5137255191802979,
					0.12156862765550613,
					1
				],
				"metallicFactor":0
			}
		},
		{
			"doubleSided":true,
			"extensions":{
				"KHR_materials_specular":{
					"specularFactor":0
				}
			},
			"name":"color_16639",
			"pbrMetallicRoughness":{
				"baseColorFactor":[
					0,
					0.250980406999588,
					1,
					1
				],
				"metallicFactor":0
			}
		},
		{
			"doubleSided":true,
			"extensions":{
				"KHR_materials_specular":{
					"specularFactor":0
				}
			},
			"name":"color_16768282",
			"pbrMetallicRoughness":{
				"baseColorFactor":[
					1,
					0.8666666746139526,
					0.10196078568696976,
					1
				],
				"metallicFactor":0
			}
		},
		{
			"doubleSided":true,
			"extensions":{
				"KHR_materials_specular":{
					"specularFactor":0
				}
			},
			"name":"color_4634441",
			"pbrMetallicRoughness":{
				"baseColorFactor":[
					0.27450981736183167,
					0.7176470756530762,
					0.2862745225429535,
					1
				],
				"metallicFactor":0
			}
		},
		{
			"doubleSided":true,
			"extensions":{
				"KHR_materials_specular":{
					"specularFactor":0
				}
			},
			"name":"color_4738883",
			"pbrMetallicRoughness":{
				"baseColorFactor":[
					0.2823529541492462,
					0.30980393290519714,
					0.26274511218070984,
					1
				],
				"metallicFactor":0
			}
		},
		{
			"doubleSided":true,
			"extensions":{
				"KHR_materials_specular":{
					"specularFactor":0
				}
			},
			"name":"color_60911",
			"pbrMetallicRoughness":{
				"baseColorFactor":[
					0,
					0.929411768913269,
					0.9372549057006836,
					1
				],
				"metallicFactor":0
			}
		}
	],
	"meshes":[
		{
			"name":"group_0_11862271",
			"primitives":[
				{
					"attributes":{
						"POSITION":0,
						"NORMAL":1
					},
					"indices":2,
					"material":0
				}
			]
		},
		{
			"name":"group_0_15277357",
			"primitives":[
				{
					"attributes":{
						"POSITION":3,
						"NORMAL":4
					},
					"indices":5,
					"material":1
				}
			]
		},
		{
			"name":"group_0_16089887",
			"primitives":[
				{
					"attributes":{
						"POSITION":6,
						"NORMAL":7
					},
					"indices":8,
					"material":2
				}
			]
		},
		{
			"name":"group_0_16639",
			"primitives":[
				{
					"attributes":{
						"POSITION":9,
						"NORMAL":10
					},
					"indices":11,
					"material":3
				}
			]
		},
		{
			"name":"group_0_16768282",
			"primitives":[
				{
					"attributes":{
						"POSITION":12,
						"NORMAL":13
					},
					"indices":14,
					"material":4
				}
			]
		},
		{
			"name":"group_0_4634441",
			"primitives":[
				{
					"attributes":{
						"POSITION":15,
						"NORMAL":16
					},
					"indices":17,
					"material":5
				}
			]
		},
		{
			"name":"group_0_4738883",
			"primitives":[
				{
					"attributes":{
						"POSITION":18,
						"NORMAL":19
					},
					"indices":20,
					"material":6
				}
			]
		},
		{
			"name":"group_0_60911",
			"primitives":[
				{
					"attributes":{
						"POSITION":21,
						"NORMAL":22
					},
					"indices":23,
					"material":7
				}
			]
		}
	],
	"accessors":[
		{
			"bufferView":0,
			"componentType":5126,
			"count":1074,
			"max":[
				38,
				39,
				89
			],
			"min":[
				-20,
				0,
				69
			],
			"type":"VEC3"
		},
		{
			"bufferView":1,
			"componentType":5126,
			"count":1074,
			"type":"VEC3"
		},
		{
			"bufferView":2,
			"componentType":5123,
			"count":1320,
			"type":"SCALAR"
		},
		{
			"bufferView":3,
			"componentType":5126,
			"count":1068,
			"max":[
				29,
				39,
				51
			],
			"min":[
				-29,
				0,
				31
			],
			"type":"VEC3"
		},
		{
			"bufferView":4,
			"componentType":5126,
			"count":1068,
			"type":"VEC3"
		},
		{
			"bufferView":5,
			"componentType":5123,
			"count":1320,
			"type":"SCALAR"
		},
		{
			"bufferView":6,
			"componentType":5126,
			"count":1039,
			"max":[
				-30,
				58,
				51
			],
			"min":[
				-69,
				0,
				31
			],
			"type":"VEC3"
		},
		{
			"bufferView":7,
			"componentType":5126,
			"count":1039,
			"type":"VEC3"
		},
		{
			"bufferView":8,
			"componentType":5123,
			"count":1290,
			"type":"SCALAR"
		},
		{
			"bufferView":9,
			"componentType":5126,
			"count":1048,
			"max":[
				57,
				58,
				-5
			],
			"min":[
				18,
				0,
				-25
			],
			"type":"VEC3"
		},
		{
			"bufferView":10,
			"componentType":5126,
			"count":1048,
			"type":"VEC3"
		},
		{
			"bufferView":11,
			"componentType":5123,
			"count":1290,
			"type":"SCALAR"
		},
		{
			"bufferView":12,
			"componentType":5126,
			"count":1016,
			"max":[
				10,
				39,
				-6
			],
			"min":[
				-29,
				0,
				-26
			],
			"type":"VEC3"
		},
		{
			"bufferView":13,
			"componentType":5126,
			"count":1016,
			"type":"VEC3"
		},
		{
			"bufferView":14,
			"componentType":5123,
			"count":1260,
			"type":"SCALAR"
		},
		{
			"bufferView":15,
			"componentType":5126,
			"count":1088,
			"max":[
				89,
				39,
				52
			],
			"min":[
				31,
				0,
				32
			],
			"type":"VEC3"
		},
		{
			"bufferView":16,
			"componentType":5126,
			"count":1088,
			"type":"VEC3"
		},
		{
			"bufferView":17,
			"componentType":5123,
			"count":1320,
			"type":"SCALAR"
		},
		{
			"bufferView":18,
			"componentType":5126,
			"count":264,
			"max":[
				-40,
				20,
				85
			],
			"min":[
				-60,
				0,
				65
			],
			"type":"VEC3"
		},
		{
			"bufferView":19,
			"componentType":5126,
			"count":264,
			"type":"VEC3"
		},
		{
			"bufferView":20,
			"componentType":5123,
			"count":324,
			"type":"SCALAR"
		},
		{
			"bufferView":21,
			"componentType":5126,
			"count":1095,
			"max":[
				-42,
				77,
				-7
			],
			"min":[
				-62,
				0,
				-27
			],
			"type":"VEC3"
		},
		{
			"bufferView":22,
			"componentType":5126,
			"count":1095,
			"type":"VEC3"
		},
		{
			"bufferView":23,
			"componentType":5123,
			"count":1332,
			"type":"SCALAR"
		}
	],
	"bufferViews":[
		{
			"buffer":0,
			"byteLength":12888,
			"byteOffset":0,
			"target":34962
		},
		{
			"buffer":0,
			"byteLength":12888,
			"byteOffset":12888,
			"target":34962
		},
		{
			"buffer":0,
			"byteLength":2640,
			"byteOffset":25776,
			"target":34963
		},
		{
			"buffer":0,
			"byteLength":12816,
			"byteOffset":28416,
			"target":34962
		},
		{
			"buffer":0,
			"byteLength":12816,
			"byteOffset":41232,
			"target":34962
		},
		{
			"buffer":0,
			"byteLength":2640,
			"byteOffset":54048,
			"target":34963
		},
		{
			"buffer":0,
			"byteLength":12468,
			"byteOffset":56688,
			"target":34962
		},
		{
			"buffer":0,
			"byteLength":12468,
			"byteOffset":69156,
			"target":34962
		},
		{
			"buffer":0,
			"byteLength":2580,
			"byteOffset":81624,
			"target":34963
		},
		{
			"buffer":0,
			"byteLength":12576,
			"byteOffset":84204,
			"target":34962
		},
		{
			"buffer":0,
			"byteLength":12576,
			"byteOffset":96780,
			"target":34962
		},
		{
			"buffer":0,
			"byteLength":2580,
			"byteOffset":109356,
			"target":34963
		},
		{
			"buffer":0,
			"byteLength":12192,
			"byteOffset":111936,
			"target":34962
		},
		{
			"buffer":0,
			"byteLength":12192,
			"byteOffset":124128,
			"target":34962
		},
		{
			"buffer":0,
			"byteLength":2520,
			"byteOffset":136320,
			"target":34963
		},
		{
			"buffer":0,
			"byteLength":13056,
			"byteOffset":138840,
			"target":34962
		},
		{
			"buffer":0,
			"byteLength":13056,
			"byteOffset":151896,
			"target":34962
		},
		{
			"buffer":0,
			"byteLength":2640,
			"byteOffset":164952,
			"target":34963
		},
		{
			"buffer":0,
			"byteLength":3168,
			"byteOffset":167592,
			"target":34962
		},
		{
			"buffer":0,
			"byteLength":3168,
			"byteOffset":170760,
			"target":34962
		},
		{
			"buffer":0,
			"byteLength":648,
			"byteOffset":173928,
			"target":34963
		},
		{
			"buffer":0,
			"byteLength":13140,
			"byteOffset":174576,
			"target":34962
		},
		{
			"buffer":0,
			"byteLength":13140,
			"byteOffset":187716,
			"target":34962
		},
		{
			"buffer":0,
			"byteLength":2664,
			"byteOffset":200856,
			"target":34963
		}
	],
	"buffers":[
		{
			"byteLength":203520,
			"uri":"tetriminos.bin"
		}
	]
}
